<?xml version="1.0" encoding="UTF-8" standalone="no"?>
<svg
   viewBox="0 0 49 49"
   version="1.1"
   id="svg12"
   sodipodi:docname="Regions.svg"
   inkscape:version="1.2.2 (b0a8486541, 2022-12-01)"
   xml:space="preserve"
   xmlns:inkscape="http://www.inkscape.org/namespaces/inkscape"
   xmlns:sodipodi="http://sodipodi.sourceforge.net/DTD/sodipodi-0.dtd"
   xmlns="http://www.w3.org/2000/svg"
   xmlns:svg="http://www.w3.org/2000/svg"
   xmlns:rdf="http://www.w3.org/1999/02/22-rdf-syntax-ns#"
   xmlns:cc="http://creativecommons.org/ns#"
   xmlns:dc="http://purl.org/dc/elements/1.1/"><sodipodi:namedview
     id="namedview14"
     pagecolor="#ffffff"
     bordercolor="#666666"
     borderopacity="1.0"
     inkscape:showpageshadow="2"
     inkscape:pageopacity="0.0"
     inkscape:pagecheckerboard="true"
     inkscape:deskcolor="#d1d1d1"
     showgrid="false"
     inkscape:zoom="23.836735"
     inkscape:cx="23.031678"
     inkscape:cy="24.5"
     inkscape:window-width="3390"
     inkscape:window-height="1371"
     inkscape:window-x="50"
     inkscape:window-y="32"
     inkscape:window-maximized="1"
     inkscape:current-layer="svg12" /><defs
     id="defs4"><style
       id="style2">.cls-1{fill:#fff;fill-rule:evenodd;}</style></defs><title
     id="title6">Globo 1</title><metadata
     id="metadata136"><rdf:RDF><cc:Work
         rdf:about=""><dc:title>Globo 1</dc:title></cc:Work></rdf:RDF></metadata><g
     id="g379"
     style="fill:#ffffff"
     transform="matrix(0.05561315,0,0,0.05561315,-9.0537345,28.112486)"><path
       style="fill:#ffffff;stroke-width:1.33333"
       d="m 776.69998,338.96879 c 24.07284,-0.0757 90.11994,-0.50006 90.11019,0.3053 -26.83443,-0.0147 -81.85433,0.35728 -90.11019,-0.3053 z m 169.87345,-1.35432 c -85.10932,-2.62061 -170.47218,2.22279 -255.45631,-2.20092 -21.42322,-24.77702 -4.11922,-69.64734 -8.31283,-102.17067 1.8361,-25.34693 -0.23138,-42.86777 14.22376,-52.1688 16.1777,-18.89383 54.36108,-13.33868 82.15201,-14.03477 72.27359,-0.49315 144.57979,0.60426 216.83085,-1.20459 23.18209,24.69295 6.60099,75.24182 11.00779,109.97322 -2.4667,18.30965 -6.6289,16.35886 -7.20481,25.30937 -13.26769,15.8253 -21.06854,21.46154 -29.32763,29.07316 3.50761,-7.70151 -23.73931,9.89877 -23.91283,7.424 z m -33.54012,-18.97959 c -18.15973,-1.45337 38.09755,-1.64965 12.5,0.79282 22.58802,-1.54195 22.79258,-1.16819 39.62732,-11.6655 9.99508,-7.34766 19.38987,-12.76574 23.4365,-39.83897 -0.43751,-35.94072 18.53107,-101.59797 -39.68819,-82.2219 -63.71574,-0.19578 -130.27907,-1.20753 -192.10468,-0.0292 -32.08692,-5.07095 -60.34513,9.36361 -57.50593,44.62232 5.50199,33.74313 -21.33691,104.30489 35.08707,89.22476 59.54354,-0.025 119.12997,0.66741 178.64791,-0.88435 z M 727.69998,305.30155 c -20.53361,-18.89369 24.66803,-29.70669 18.40173,-5.74042 -0.60993,6.8213 -11.97335,7.55566 -18.40173,5.74042 z m 126.43244,-7 c -9.06192,-7.38118 -4.88011,-26.33432 3.74309,-23.09069 16.18792,-7.88704 26.76739,34.31519 -2.31557,23.19743 l 0.29741,1.55992 z m 61.23422,-2.31895 c -5.13201,-25.34864 11.23751,-16.48321 14.7945,-29.13916 -6.73865,-29.88706 39.90182,-16.72537 19.11599,4.46701 -3.69152,13.76157 -2.17713,11.58286 -16.62656,23.08568 9.33933,-1.66884 -17.66432,5.33414 -17.28393,1.58647 z m -154.07935,-7.28423 c -11.28168,-17.33648 8.83194,-24.8843 15.07936,-22.06349 13.6029,8.04094 -1.98247,30.51835 -15.07936,22.06349 z m 35.01794,-5.47082 c -5.1444,-22.20402 6.76315,-17.02639 13.57901,-26.70655 8.67057,-10.18354 39.7416,0.3389 14.6679,17.99686 -0.92387,-3.13032 -19.16953,10.73243 -16.1854,9.44403 4.0684,-3.72549 -10.68149,3.94936 -12.06151,-0.73434 z m -56.63936,-31.46739 c -2.05826,3.8696 -16.64783,-38.21503 4.63642,-29.2583 10.29338,7.46422 10.75679,4.22296 11.57423,11.79384 10.47127,12.49241 -4.39821,25.38672 -16.21065,17.46446 z m 214.53664,-18.07225 c -21.87606,-22.79202 35.47806,-36.93404 24.01356,-10.25964 -5.74242,8.06428 -12.76859,9.20146 -24.01356,10.25964 z M 378.5511,231.30155 c -2.7747,-1.39271 -31.64552,-15.03524 -26.4394,-13.30259 -11.9897,-9.77981 -10.22964,-13.69812 -14.9595,-18.52645 -15.95786,-13.01372 -11.56115,-50.85656 -31.5546,-62.37764 -24.10336,-11.02355 -42.98951,-3.25107 -43.4586,-8.6606 -23.36028,4.4691 -20.19887,-54.012817 -7.22042,-74.312381 -3.56058,-1.147561 30.88798,-20.881537 12.55522,-25.268403 -19.08608,-26.3346225 16.91003,-54.096884 13.94659,-64.389878 -23.46612,-8.314255 -19.64087,-34.102328 -27.51003,-57.150737 -0.002,-35.007371 52.00456,4.624693 32.23404,-34.678001 -7.09837,-3.31962 0.1934,-29.11574 -2.0141,-23.6648 24.58716,-12.07502 5.42551,-61.8183 13.938,-44.3352 -8.66903,-25.03591 6.61742,-34.97275 24.2613,-47.39228 4.69527,-2.76082 30.74611,-20.71331 15.4619,-25.998 -5.50996,-13.69221 -12.56284,-29.10383 -37.06317,-15.7648 -23.11748,1.46108 -66.04213,12.90635 -68.43033,-16.14118 5.32678,-19.55214 -22.6457,12.56147 -21.2648,5.97892 -0.86674,3.46846 -24.20155,6.43251 -29.3333,-9.57061 -1.97359,-10.03997 7.33453,-40.60824 5.899,-41.11198 0.41513,-2.06318 -10.0437,-14.8907 -8.8393,-13.8715 2.48752,-5.14554 -9.2396,-41.57778 -9.0041,-28.40904 -15.59168,-25.25236 -1.92069,-33.8111 11.1587,-45.27502 9.03213,-1.80728 33.58231,-10.81889 41.18156,1.39568 18.10061,12.53726 5.53228,-33.36031 17.08574,-27.50048 20.83457,-16.54251 48.6402,-11.56168 65.8145,4.20703 18.38304,7.02188 69.31085,5.29128 20.5819,2.9644 1.69438,-1.77601 39.63176,-1.16856 44.1221,0.38078 20.66683,-2.28323 58.33597,9.88055 67.05754,10.61006 44.12325,7.31825 54.39638,8.24923 99.05548,4.40772 12.21369,4.95673 25.96369,3.67332 53.0273,6.77809 7.38981,3.28865 20.26846,5.69645 11.81208,6.2146 26.87818,17.33676 66.61515,-12.10269 85.44734,25.70276 11.52855,20.1197 44.90011,18.95691 51.60029,28.39493 11.35273,-2.19697 51.02687,18.7663 57.66667,11.12996 8.91272,-18.48589 38.32708,-14.14325 57,-5.83507 4.41089,0.2481 8.92536,4.11741 18.44444,10.1411 -11.82049,6.89973 20.82181,25.65704 4.22222,13.11601 23.07943,5.15733 40.10542,10.26462 38.09947,10.27559 4.59581,-10.22044 34.33085,6.01923 52.2215,-9.37227 -29.88668,4.49393 53.17857,-12.81967 30.46038,23.65494 4.51399,37.12909 3.46872,47.174 -18.70056,65.7786 -3.52359,1.14697 -25.78795,17.36496 -22.82595,15.18467 -6.87555,0.94062 -14.96997,11.90838 -23.25485,15.33847 -1.42362,8.64779 -29.77871,14.49849 -44.1073,19.40953 -17.60855,-0.8445 -53.00828,27.71584 -43.72581,27.95004 1.70781,-27.30887 0.44236,34.06783 -17.24785,25.50196 -9.11926,21.39448 3.34844,-13.64415 -9.58017,15.6894 -0.29087,10.44214 -11.00294,12.2583 -14.22511,23.47863 -7.49049,9.25502 -23.16724,41.381965 -24.02277,35.224959 -2.71694,-0.390592 -1.7273,19.160949 -2.99727,18.973066 7.69661,25.539771 25.10674,30.547762 28.68711,50.8412728 1.86493,15.3323032 -19.0602,20.2642412 -11.30793,19.1446192 -19.71066,9.375014 -31.03375,24.466923 -37.35865,36.83076 -1.21596,15.918513 -15.42228,7.271307 -12.70359,30.345469 2.90443,33.845404 -45.90943,15.576517 -58.07728,39.907874 -32.53218,3.35307 -17.10006,28.40449 -35.42871,45.63942 -5.59766,14.85203 -49.32398,9.16371 -37.90457,8.54233 -32.39581,7.86732 -88.25604,3.51906 -107.89276,1.24012 54.47867,0.0755 -49.95433,-7.91256 -44.93474,18.47021 -14.40777,-4.75426 -47.74141,6.46501 -48.00932,25.33498 3.11256,1.95759 -24.22218,15.57049 -31.64553,8.72996 z m 4.2667,-23.76992 c 12.42156,4.43029 17.55312,-25.78285 22.8822,-19.80516 7.85021,-15.5185 36.22517,-8.24175 46.2222,-16.30535 8.45257,-19.39285 30.18711,-11.3039 57.37401,-13.30153 37.49253,3.87743 80.80625,-0.26614 113.88097,-2.15136 6.71845,-1.58654 7.04376,-4.14263 13.81639,-13.36087 5.32571,-28.01621 19.09903,-20.99622 -5.96859,-42.625104 -1.48423,-24.867311 -4.81384,-23.758845 -24.24684,-39.8716 -5.11392,1.207925 -12.12022,-12.051455 -13.66973,-33.17877 -42.63537,-1.07688 -85.22087,9.567518 -127.99121,4.90112 -9.36581,-2.326892 -23.87598,-17.131735 -30.6228,-20.992109 -10.36635,-17.2428474 -25.03778,-1.1847693 -31.4474,2.809175 -2.16823,16.810291 -5.89458,36.449354 -27.8176,37.763744 2.6374,4.062382 -23.67891,11.774454 -46.21156,1.890495 -24.33879,-7.27437 -51.91958,12.284102 -50.25624,9.576781 -15.16898,3.74444 -19.76298,39.430068 -5.77226,42.905318 -0.98579,5.60479 48.52378,6.63382 61.79081,23.2594 0.91991,23.64706 11.52458,25.31838 12.00244,38.10786 4.65746,18.41933 17.70695,29.64967 16.94271,27.84756 -0.33454,6.84401 21.22975,15.03749 19.0925,12.5304 z M 674.34174,101.0703 c 3.66685,-18.396702 69.30913,-7.452769 40.02491,-34.435414 -6.80709,-5.489203 -14.1951,-33.46882 -8.67211,-51.999999 -5.92764,3.531583 0.45678,-5.4252777 1.14284,-7.33334 -13.67914,-16.2413357 -1.19684,8.381667 -15.03187,17.677229 -0.34189,23.729862 -55.29057,12.029577 -54.73473,32.052491 1.48811,-1.541431 9.46093,15.922456 13.80451,18.936379 -4.25389,15.546934 11.35877,26.332634 23.46645,25.102654 z m 65.9014,-65.540574 C 740.9771,16.310712 785.21307,-4.4837465 773.3334,0.98089353 778.19184,-13.832538 751.60707,-31.708176 751.78562,-54.851768 c -12.1414,-15.382206 5.57884,-29.246359 8.49216,-36.568246 10.42401,-18.209016 15.79015,-15.595066 26.69345,-37.597216 -17.38478,27.74788 9.8159,-19.97512 4.06208,-6.2667 19.64829,-19.9758 -5.97572,-24.11989 -5.6539,-34.43019 -25.23959,-17.86982 -3.12171,34.80517 -31.55104,41.54181 -6.24827,11.75651 -23.61851,35.44188 -47.35226,24.14057 -8.67451,10.982018 -7.16228,13.565616 -14.62457,23.247392 -5.31423,20.289065 20.50542,7.139927 11.29473,34.077172 -0.87475,10.221089 -4.8964,28.307208 19.69768,29.81338 11.47023,10.2415109 -2.60595,73.081805 5.04482,40.112085 -1.37573,13.428625 0.84343,38.638632 12.35437,12.311437 z M 361.6865,33.982086 c 22.4395,-14.181423 23.46321,-47.618109 54.07135,-54.62063 -1.28456,-0.410782 23.11819,-37.817109 7.12775,-34.386931 -22.13706,-9.774925 -26.38196,-19.242385 -27.4375,-47.277435 0.42342,-25.06607 -0.80483,-34.56721 -29.7098,-38.39553 -19.86889,-10.26171 -32.0337,7.76623 -55.75307,7.91626 10.07528,27.74135 -5.48384,48.447218 -29.9093,54.338613 5.58961,13.756346 10.47145,23.349823 24.47437,31.395444 6.88547,26.511598 -10.4035,37.6029959 -18.0163,48.3022384 -1.30998,44.2970586 39.86438,18.7749316 43.166,28.9693006 11.12052,-2.894586 12.69543,15.875613 31.9865,3.75867 z m 259.02675,0.94676 c 2.99331,-4.457612 35.32081,-15.635581 52.57666,-20.523378 -11.34698,-14.03266804 4.1625,-24.1548321 8.52506,-39.103917 -0.076,-10.199742 -4.34146,-30.719261 -13.06301,-44.83499 -6.35598,-21.412411 6.49671,-26.294513 9.6188,-34.498741 7.88251,-3.8047 1.49905,-20.86082 -9.81982,-20.55238 -16.27689,-18.70995 -30.91405,-18.0328 -23.70371,-44.61552 9.57243,-17.61985 -1.78749,-41.79141 -19.88318,-35.54359 -28.50168,11.52037 -60.04796,-38.63862 -92.56838,-9.76101 -3.25698,15.01674 -5.09177,2.78927 0.35322,26.76702 6.92249,20.86515 38.51879,67.83248 -4.86986,68.74566 -31.88407,10.91568 -58.63994,-18.57013 -84.86406,-10.28278 -23.16695,-1.90996 -32.4215,29.821062 -22.18707,37.576336 -7.91527,8.415543 24.45989,18.554624 18.476,16.906276 30.13424,10.534655 0.59334,40.40069 2.1174,60.588116 -1.36819,-10.27514 15.60799,18.9651339 25.9454,22.547219 6.08829,4.564404 57.46924,3.113491 56.6223,1.734675 26.76635,-3.5377417 51.68567,-7.591905 78.62965,-3.9839037 17.47691,0.1197191 6.03756,32.5557547 18.0946,28.8349077 z M 722.49397,-125.57112 c -1.51388,-4.95564 34.32808,-27.20575 24.70808,-44.69322 -4.02489,-23.12013 10.61646,-19.6895 22.97245,-26.4811 24.5335,-9.77028 18.65161,-40.66814 22.54844,-39.79124 -2.77935,-35.63757 5.05489,-19.10132 11.25018,-47.74778 8.73799,-26.58599 -1.56335,-58.11744 -23.60647,-51.85507 19.80589,4.18785 -5.57574,2.56719 -10.09081,-1.56451 -16.50407,0.4426 -36.48141,-20.14308 -58.21518,-5.70716 -26.75419,21.32311 -20.75941,24.73525 -28.70569,65.15362 -22.58475,11.67101 -50.79488,18.92944 -37.98832,48.94819 12.5524,16.57233 -17.49678,-28.45117 1.61144,-0.7763 10.63348,17.14124 17.1535,18.83207 17.67142,23.60854 14.71906,5.88887 4.96834,28.94304 4.7785,39.61029 -9.38505,2.25698 2.24464,12.92825 8.68129,20.49461 12.99897,11.02934 43.80338,19.28988 35.39995,18.36089 3.62698,0.23245 2.95671,8.05662 8.98472,2.44024 z m -197.93909,-14.56139 c 10.31659,-5.39474 -16.40386,-32.88185 -12.33444,-44.26611 -2.08702,-13.33126 -13.44018,-18.53696 -17.26644,1.70018 3.19863,18.16957 -17.98592,16.37116 -15.92182,32.5044 11.70637,10.34896 30.54601,15.81032 45.5227,10.06153 z m -94.07708,-6.61741 c 16.79293,-10.38674 30.16286,-27.97137 40.0438,-35.20495 5.75597,-17.72553 13.03996,-34.4355 23.5117,-38.92086 3.29834,-8.1883 55.12605,-30.50562 28.26582,-15.68004 19.86558,-12.75298 58.09675,-8.9709 68.7342,0.76452 18.3834,4.93221 22.77724,10.43809 1.33333,1.6981 36.97843,27.22269 20.81183,-33.77531 43.8206,-43.88661 5.10438,-5.47604 -10.71437,-16.63255 -23.56864,-19.6432 -12.64555,-12.40629 -25.93749,-7.52263 -36.29069,-19.34541 -8.0621,-27.40351 -59.47691,2.49626 -57.7968,-38.34449 -6.56419,-10.4157 -31.44601,-1.3384 -21.15313,-24.07248 5.67212,-4.55464 39.25158,-9.39107 25.07725,-24.09262 -5.18477,-18.5977 -59.59284,-2.57139 -66.3351,-11.04695 -44.9799,-7.04802 -90.39227,-20.37696 -136.18284,-13.61086 -9.48001,26.92443 31.73951,27.9198 15.7299,56.88217 -6.19858,14.30757 -1.0061,13.90009 -4.823,20.77944 5.91543,9.66491 -6.11363,40.50207 7.0767,40.96186 12.76349,3.8779 19.12272,28.33211 35.52861,33.22095 4.60272,16.90892 -17.76447,38.95747 -34.23045,52.14256 -8.37385,1.41554 -22.77451,15.41201 -17.51876,26.78361 6.00622,8.19661 -17.3911,48.08977 10.6666,32.75048 6.07927,-7.50382 62.37186,1.5946 44.88655,4.50537 25.22598,-1.32538 28.59289,15.17755 44.1477,16.90905 l 3.93715,-1.50073 5.1397,-2.04898 z m 383.88884,-26.61519 c 10.62191,-0.17867 12.00939,-33.90783 20.94069,-30.82538 24.63964,-12.46365 52.69374,-17.2241 79.89171,-31.30608 2.16512,-1.20244 23.46026,-13.16164 19.98204,-15.47333 6.73514,-6.99669 41.27204,-24.99274 39.08964,-32.72854 -2.70285,-5.63775 7.70722,-51.96943 -25.90404,-25.63134 -19.90424,7.16222 -51.06267,4.25459 -55.25484,-1.96176 -1.2106,-2.93386 -34.62344,0.004 -39.57218,-14.7684 -2.68828,-6.96783 -5.13715,-13.91812 -10.68279,-17.31854 -40.74694,-20.68418 -3.55644,38.56609 -17.18258,48.93161 1.82817,11.09839 -2.07368,27.50714 -8.23511,43.49842 -0.8969,22.43541 -19.90509,74.72474 -15.52654,64.65605 3.24444,2.52112 6.12241,10.23524 12.454,12.92729 z m -149.86709,-121 c 2.0426,-3.77927 5.74242,-51.53685 17.20527,-50.33333 -0.58862,-3.00348 28.88922,-16.67646 4.73531,-24.18938 -18.49705,0.17198 -23.38853,-12.46136 -22.07348,-21.81062 -6.95964,-10.60251 -12.05244,-1.87397 -14.76039,-0.33333 -11.53758,21.31995 -15.8498,4.22728 -25.95162,24.02931 -4.7509,6.41518 -5.94173,27.95152 -7.16635,9.4519 9.16119,13.64632 -9.19297,31.87046 0.96001,36.14888 12.53938,1.78493 9.49318,3.81509 21.27556,12.36964 16.69114,-8.65197 14.83174,27.5068 25.77569,14.66693 z M 261.7,-302.5852 c -5.9667,-2.9304 35.1265,-3.76116 13.04699,-0.60533 22.20213,2.02693 46.60241,-18.03333 35.14241,-36.99768 -15.14592,-17.70465 18.54486,-38.80342 0.1161,-47.69239 -2.14313,4.39368 -11.98635,-22.55649 -12.1696,-18.81784 17.33463,-26.14774 -44.07114,-63.66059 -42.53396,-19.92788 3.26673,10.5227 -15.83811,16.7655 -26.94624,17.99495 -10.41932,-0.32262 -29.6136,-11.29383 -37.12014,-2.02696 -6.7462,16.23901 12.26609,13.00906 6.49794,25.18903 5.22576,9.58763 28.2987,19.00008 14.38966,30.71749 -8.51993,19.66488 -9.11084,48.39376 8.42754,25.93956 11.36885,-5.09265 38.17577,-0.65714 36.30863,25.88615 -0.952,2.22256 15.68861,1.33604 4.84067,0.3409 z m 332.89677,-38.97192 c -2.29144,-20.52896 11.88955,-31.65121 5.86289,-34.65697 30.80736,-16.93888 -15.42798,-36.3203 -25.66654,-32.66147 -15.81051,2.46404 -23.84879,-10.35191 -28.42966,16.20312 4.84927,21.692 -22.10862,32.82229 5.68318,40.28901 36.62218,2.40261 2.97509,5.03244 -2.68865,2.36841 25.95822,-1.087 32.95986,4.724 42.47169,10.8497 l 2.63849,-0.34616 z M 863.00986,8.606627 c 2.88272,-21.316517 -20.32861,-46.069834 14.5579,-47.939337 26.15447,4.068901 -3.619,28.05784 2.79882,21.779714 -5.72069,10.0186689 16.98176,30.941742 -17.35672,26.159623 z m 90.53295,-43.033529 c -11.13172,-5.894916 -21.59382,-17.462783 -29.50763,-20.035714 -8.58168,-18.123751 8.74659,-33.013883 20.30206,-33.226378 16.74727,-14.685746 31.10834,-6.207249 40.03718,0.319045 0.79654,-1.550276 17.58248,16.07969 8.2065,24.066893 -7.78924,18.66819 -3.46449,6.791012 -17.70835,25.201866 -4.00846,4.716962 -20.15112,3.707807 -21.32976,3.674288 z m 10.75312,-26.31524 c 20.4563,-16.362739 -26.65762,-8.008471 -7.14314,-1.511564 2.18717,6.093403 1.90534,3.682444 7.14314,1.511564 z M 1033.7,-88.130088 c -18.762,-0.151356 -28.6414,-27.402862 -15.7388,-27.408092 16.082,-8.06282 39.643,28.424624 15.7388,27.408092 z"
       id="path329" /></g><path
     style="fill:#000000;stroke-width:1.33333"
     id="path317"
     d="" /></svg>
