<?xml version="1.0" encoding="UTF-8" standalone="no"?>
<svg
   viewBox="0 0 49 49"
   version="1.1"
   id="svg12"
   sodipodi:docname="Regions-2.svg"
   inkscape:version="1.2.2 (b0a8486541, 2022-12-01)"
   xml:space="preserve"
   xmlns:inkscape="http://www.inkscape.org/namespaces/inkscape"
   xmlns:sodipodi="http://sodipodi.sourceforge.net/DTD/sodipodi-0.dtd"
   xmlns="http://www.w3.org/2000/svg"
   xmlns:svg="http://www.w3.org/2000/svg"
   xmlns:rdf="http://www.w3.org/1999/02/22-rdf-syntax-ns#"
   xmlns:cc="http://creativecommons.org/ns#"
   xmlns:dc="http://purl.org/dc/elements/1.1/"><sodipodi:namedview
     id="namedview14"
     pagecolor="#ffffff"
     bordercolor="#666666"
     borderopacity="1.0"
     inkscape:showpageshadow="2"
     inkscape:pageopacity="0.0"
     inkscape:pagecheckerboard="true"
     inkscape:deskcolor="#d1d1d1"
     showgrid="false"
     inkscape:zoom="2.1068896"
     inkscape:cx="292.84875"
     inkscape:cy="215.48352"
     inkscape:window-width="3390"
     inkscape:window-height="1371"
     inkscape:window-x="50"
     inkscape:window-y="32"
     inkscape:window-maximized="1"
     inkscape:current-layer="svg12" /><defs
     id="defs4"><style
       id="style2">.cls-1{fill:#fff;fill-rule:evenodd;}</style></defs><title
     id="title6">Globo 1</title><metadata
     id="metadata136"><rdf:RDF><cc:Work
         rdf:about=""><dc:title>Globo 1</dc:title></cc:Work></rdf:RDF></metadata><path
     style="fill:#000000;stroke-width:1.33333"
     id="path317"
     d="" /><path
     style="fill:#ffffff;stroke-width:0.0600291"
     d="m 5.5202667,48.512327 c -1.51096,-0.15956 -2.7829,-0.79431 -3.85256,-1.92259 -0.90683999,-0.95652 -1.39750999,-2.00631 -1.58454999,-3.39011 -0.0333,-0.24663 -0.0633,-7.90401 -0.074,-18.90351 -0.0196,-20.1297502 -0.0412,-18.8026602 0.32269,-19.8396102 0.75811999,-2.16073 2.25297999,-3.47388001 4.47916999,-3.93470001 0.41271,-0.0854 2.38068,-0.0943 19.7291903,-0.0892 18.46241,0.005 19.29334,0.0104 19.80971,0.11615 1.65173,0.3384 3.08709,1.45797001 3.91484,3.05355001 0.41439,0.79877 0.61136,1.42264 0.67715,2.1448 0.0314,0.34488 0.0556,8.4106102 0.0567,18.9567102 0.002,20.38729 0.036,18.72099 -0.40122,19.82207 -0.37955,0.9559 -0.65518,1.38788 -1.30758,2.04925 -0.65977,0.66884 -1.34085,1.14904 -2.10422,1.48362 -0.64232,0.28152 -1.11694,0.39623 -1.91136,0.46197 -0.8328,0.0689 -37.0982403,0.0608 -37.7539603,-0.008 z m 38.4057403,-1.69666 c 1.1478,-0.3499 2.00614,-0.97416 2.65307,-1.92957 0.3583,-0.52914 0.55405,-0.94546 0.68464,-1.45606 0.1136,-0.44416 0.11611,-0.85727 0.11509,-18.94842 -0.001,-19.7959202 0.0141,-18.7606802 -0.28824,-19.6191402 -0.19404,-0.55096 -0.53562,-1.06028 -1.06395,-1.58643 -0.40306,-0.4014 -0.59409,-0.53959 -1.05518,-0.76335 -1.04077,-0.50505 1.02324,-0.46051 -20.52665,-0.44298 -18.2899703,0.0149 -19.2529403,0.0209 -19.5930103,0.12318 -1.40057,0.42113 -2.55762,1.56712 -3.04308,3.01398 l -0.14099,0.4202 -0.0157,18.6983502 c -0.0155,18.54352 -0.0147,18.70232 0.10475,19.17929 0.18624,0.74386 0.48842,1.29741 1.00127,1.8342 0.78595,0.82265 1.71869,1.3533 2.69148,1.53124 0.33656,0.0616 4.17216,0.0747 19.2693403,0.0658 18.03132,-0.0106 18.86466,-0.0158 19.20713,-0.12024 z m -14.26145,-2.40978 c -0.31351,-0.17039 -0.32345,-0.2644 -0.32345,-3.06151 v -2.58125 l 0.15938,-0.33995 c 0.44261,-0.94414 1.12622,-1.57634 1.99448,-1.84452 0.40176,-0.12409 0.50625,-0.1265 6.12429,-0.14092 5.36286,-0.0138 5.72547,-0.008 5.87633,0.0907 0.38075,0.24948 0.3746,0.20263 0.35232,2.68255 -0.0111,1.23941 -0.0455,2.38842 -0.0763,2.55336 -0.12307,0.65863 -0.55852,1.31344 -1.30847,1.96765 -0.39434,0.34399 -0.84055,0.56346 -1.37657,0.67707 -0.59561,0.12624 -11.18934,0.1233 -11.42203,-0.003 z m 11.47227,-1.20645 c 0.48497,-0.2311 0.94472,-0.64036 1.15654,-1.02953 0.26707,-0.4907 0.333,-0.93836 0.378,-2.56637 0.0493,-1.78528 0.0268,-1.89732 -0.40446,-2.01431 -0.19248,-0.0522 -1.5565,-0.0641 -5.27209,-0.0458 l -5.01243,0.0247 -0.31837,0.17358 c -0.40911,0.22305 -0.70021,0.54846 -0.93494,1.04513 l -0.18738,0.39649 v 1.92093 c 0,2.04032 0.0126,2.13829 0.28906,2.25155 0.0743,0.0305 2.25069,0.0485 5.02351,0.0416 l 4.89237,-0.0121 z m -9.70543,-0.57576 c -0.18326,-0.0886 -0.28026,-0.34619 -0.20495,-0.54426 0.11283,-0.29679 0.47555,-0.37459 0.74785,-0.1604 0.42253,0.33236 -0.0485,0.94369 -0.5429,0.70466 z m 5.818,-0.16844 c -0.24927,-0.15198 -0.43415,-0.45425 -0.43444,-0.71028 -6e-4,-0.29938 0.27399,-0.55065 0.60119,-0.55065 0.72056,0 1.0312,0.7546 0.4932,1.19806 -0.25894,0.21344 -0.39218,0.22613 -0.65995,0.0629 z m -4.35727,-0.47027 c -0.1422,-0.15713 -0.1262,-0.46081 0.032,-0.60823 0.14147,-0.13181 0.31761,-0.15413 0.54226,-0.0687 0.21221,0.0807 0.50318,-0.0451 1.04171,-0.45028 0.83339,-0.62703 1.03516,-0.71611 1.33579,-0.5897 0.20924,0.088 0.31049,0.28188 0.31049,0.59463 0,0.22038 -0.28523,0.62887 -0.68215,0.97695 -0.26743,0.23453 -0.57743,0.25931 -0.93864,0.075 -0.33148,-0.16911 -0.70645,-0.15739 -0.96047,0.03 -0.24138,0.1781 -0.54032,0.19578 -0.68103,0.0403 z m 7.1101,-0.10034 c -0.23843,-0.10727 -0.36154,-0.2505 -0.36422,-0.42372 -0.003,-0.1659 0.35807,-0.75512 0.70601,-1.15348 0.50422,-0.57732 0.67274,-0.85857 0.67284,-1.12298 0,-0.37312 0.167,-0.65081 0.4301,-0.71582 0.44607,-0.11022 0.80194,0.20368 0.73044,0.64428 -0.0398,0.24509 -0.13025,0.3415 -0.46866,0.49941 -0.3184,0.14856 -0.39564,0.32039 -0.36036,0.80161 0.0237,0.32359 6e-4,0.46614 -0.1365,0.83514 -0.10188,0.2746 -0.22255,0.48706 -0.31517,0.55493 -0.21146,0.15495 -0.64286,0.19384 -0.89448,0.0806 z m -8.12611,-1.34103 c -0.61446,-0.40517 -0.61968,-1.21019 -0.008,-1.21019 0.2616,0 0.59668,0.15027 0.71649,0.32133 0.0484,0.0691 0.088,0.24321 0.088,0.38698 0,0.20886 -0.0353,0.29665 -0.17547,0.43686 -0.20183,0.20183 -0.38464,0.22097 -0.62114,0.065 z m -17.1102,-1.10514 c -0.35491,-0.20635 -0.74869,-0.47309 -0.87507,-0.59275 -0.29862,-0.28275 -1.13655,-1.82684 -1.39378,-2.56837 -0.10777,-0.31067 -0.27885,-0.67535 -0.38018,-0.81039 -0.25203,-0.33591 -0.71001,-0.55128 -1.4148,-0.66534 -1.2146003,-0.19656 -1.3283503,-0.22474 -1.5040703,-0.3726 -0.33575,-0.2825 -0.37158,-0.90578 -0.11872,-2.06438 0.14001,-0.64151 0.32096,-1.06301 0.65897,-1.53504 0.13391,-0.187 0.24347,-0.38055 0.24347,-0.43011 0,-0.0496 -0.12785,-0.33555 -0.2841,-0.63554 -0.27351,-0.5251 -0.28414,-0.56454 -0.28514,-1.05788 -10e-4,-0.49924 0.006,-0.52401 0.26442,-0.96047 0.3834403,-0.64714 0.3734403,-0.76204 -0.14037,-1.61227 -0.53762,-0.88964 -0.63534,-1.1543 -0.63534,-1.72076 0,-0.71418 0.2304,-1.00934 0.96112,-1.23129 0.2270803,-0.069 0.4400903,-0.1582 0.4733503,-0.19828 0.16703,-0.20125 0.31751,-1.25024 0.39889,-2.78054 0.046,-0.86484 0.10149,-1.64822 0.12332,-1.74084 0.0746,-0.31636 0.2716,-0.55437 0.83186,-1.00499 0.66903,-0.5381 1.42783,-1.34472 1.60191,-1.70286 0.11353,-0.23357 0.11771,-0.27901 0.0436,-0.47378 -0.12955,-0.34041 -0.35265,-0.47002 -0.79167,-0.45993 -0.20392,0.005 -0.54493,0.0676 -0.7578,0.1397 -0.37273,0.12633 -0.4423,0.12957 -1.8816503,0.0878 -1.4722,-0.0427 -1.49725,-0.0456 -1.67083,-0.19163 -0.0969,-0.0815 -0.25771,-0.26672 -0.35731,-0.41149 -0.24258,-0.35258 -0.37944,-0.34579 -0.90655,0.045 -0.41293,0.30612 -0.41812,0.30797 -0.77237,0.27585 -0.70626,-0.064 -0.98979,-0.38793 -0.98422,-1.12431 0.002,-0.24762 0.0381,-0.62958 0.0806,-0.84881 l 0.0772,-0.3986 -0.3908,-0.92204 c -0.21494,-0.50712 -0.41989,-1.0301 -0.45544,-1.16216 -0.0871,-0.3236902 -0.0809,-0.9855502 0.011,-1.1705702 0.13998,-0.28173 0.92864,-0.74419 1.68743,-0.98947 0.64441,-0.2083 0.72041,-0.24904 0.9585,-0.51385 0.25803,-0.28699 1.34373,-1.06738 1.82256,-1.31003 0.139,-0.0704 0.32101,-0.12807 0.40447,-0.12807 0.25691,0 1.2919003,0.35683 1.9327203,0.66634 l 0.60898,0.29412 0.80171,0.001 c 1.57669,0.003 2.86011,0.10165 3.38999,0.26107 0.268,0.0806 1.0919,0.2467 1.83089,0.36904 1.45273,0.24052 1.37929,0.23837 3.83483,0.11182 0.73369,-0.0378 0.76231,-0.0345 1.28835,0.14924 0.49839,0.17408 0.59667,0.18792 1.33493,0.18792 0.71572,0 0.8536,0.018 1.35292,0.17645 0.3058,0.097 0.96928,0.27283 1.4744,0.39062 0.50513,0.1178 1.00487,0.2516 1.11054,0.29734 0.10567,0.0457 0.3697,0.24276 0.58673,0.43783 0.43032,0.38677 0.80636,0.5758802 1.42516,0.7166902 0.22072,0.0502 0.76599,0.20787 1.21171,0.35033 0.44571,0.14246 1.0865,0.32006 1.42398,0.39468 l 0.61358,0.13567 0.24505,-0.16216 c 0.36378,-0.24074 1.13068,-0.57641 1.31691,-0.57641 0.1759,0 1.45476,0.36178 1.68975,0.47802 0.0788,0.039 0.30544,0.24593 0.50353,0.45985 0.36,0.38875 0.36047,0.38902 0.96047,0.53832 0.33016,0.0822 0.89743,0.20008 1.26061,0.26205 0.36317,0.062 0.73636,0.14193 0.8293,0.17769 0.27651,0.10641 0.43173,0.0781 1.07717,-0.19651 0.77058,-0.32784 0.96031,-0.36336 1.33945,-0.25076 0.34919,0.10369 0.62518,0.36285 0.80133,0.75242 0.11079,0.24504 0.12225,0.39279 0.1234,1.59077 l 10e-4,1.32064 -0.17275,0.36017 c -0.22298,0.46493 -0.41144,0.63592 -1.3579,1.23203 -0.42921,0.27032 -1.01277,0.66201 -1.29681,0.87041 -0.63377,0.46501 -1.60762,0.95804 -2.48502,1.25808 -0.36318,0.1242 -0.72786,0.26064 -0.8104,0.3032 -0.34064,0.17565 -0.65623,0.66886 -0.87563,1.36843 -0.10934,0.34865 -0.18114,0.43386 -0.70458,0.83615 -0.14578,0.11204 -0.29153,0.32581 -0.45102,0.66151 -0.1296,0.27279 -0.52344,0.95467 -0.87519,1.51528 -0.91244,1.45424 -1.07904,1.80787 -1.10633,2.34831 -0.0265,0.52432 0.0726,0.77006 0.52738,1.30791 0.37401,0.44233 0.48428,0.67173 0.48261,1.00392 -0.002,0.39921 -0.17709,0.7071 -0.62779,1.10407 -0.90052,0.79318 -1.10497,1.00664 -1.279,1.3354 -0.22362,0.42244 -0.34507,0.82697 -0.43698,1.45556 -0.0663,0.45323 -0.0872,0.49961 -0.33781,0.75026 -0.27976,0.27977 -0.58279,0.40229 -1.18899,0.48075 -0.44281,0.0573 -0.98405,0.20157 -1.22699,0.32704 -0.32617,0.16846 -0.61467,0.5053 -1.06445,1.2428 -0.70803,1.16092 -1.01275,1.56263 -1.29437,1.7063 l -0.25511,0.13015 -2.97191,-0.0437 c -1.63455,-0.024 -3.1029,-0.0404 -3.26301,-0.0363 -0.2012,0.005 -0.50742,0.0984 -0.99148,0.30195 -0.3852,0.16203 -0.95654,0.36514 -1.26964,0.45136 -0.96002,0.26437 -0.86368,0.18894 -1.72245,1.34852 -0.37871,0.51136 -0.60732,0.66226 -1.00333,0.66226 -0.26878,0 -0.38975,-0.0476 -0.95315,-0.37518 z m 11.34151,-4.24477 c 0.53478,-0.30672 1.10102,-1.0882 1.10209,-1.521 7.2e-4,-0.29028 -0.0804,-0.44546 -0.71222,-1.36268 -0.49758,-0.72233 -0.51684,-0.76276 -0.51548,-1.08194 0.001,-0.26616 0.0539,-0.44194 0.26725,-0.89098 0.3203,-0.67398 0.44595,-0.78842 0.86563,-0.78842 0.40194,0 1.27229,-0.10704 1.52212,-0.18719 0.23085,-0.0741 0.33872,-0.25691 0.4633,-0.78531 0.11274,-0.47825 0.11439,-1.12504 0.004,-1.54011 -0.0966,-0.3629 -0.26655,-0.64235 -0.66029,-1.08568 -0.35485,-0.39954 -0.45329,-0.60062 -0.45329,-0.92594 0,-0.27698 0.23851,-0.80262 0.60777,-1.33942 0.0949,-0.13801 0.17261,-0.3032 0.17261,-0.36709 0,-0.20023 -0.24068,-0.43474 -0.85202,-0.83019 -0.44307,-0.2866 -0.63593,-0.45301 -0.76999,-0.66441 -0.0984,-0.15512 -0.17886,-0.32399 -0.17886,-0.37528 0,-0.0513 0.16587,-0.43887 0.36861,-0.8613 0.3312,-0.6901 0.36138,-0.78393 0.29731,-0.92455 -0.0973,-0.21357 -0.91076,-1.36669 -1.19862,-1.69914 -0.22143,-0.25573 -0.24947,-0.26958 -0.52593,-0.25973 -0.16062,0.006 -0.69722,0.13727 -1.19246,0.29233 -1.09037,0.34141 -1.41996,0.36004 -2.23238,0.12617 -0.63789,-0.18363 -0.90955,-0.19745 -1.1973,-0.0609 -0.31572,0.14982 -0.52208,0.44477 -1.06948,1.52866 -0.76371,1.51217 -0.75855,1.77756 0.0371,1.9082 0.31196,0.0512 0.68907,0.18796 1.29504,0.46956 0.4702,0.21851 0.89504,0.44163 0.94407,0.49581 0.12289,0.1358 0.90786,1.9104 1.02831,2.32474 0.0693,0.23856 0.09,0.48021 0.0704,0.82338 -0.0328,0.57301 -0.54559,2.75886 -0.69676,2.96998 -0.0802,0.11205 -0.36293,0.22571 -1.30178,0.52338 -0.65961,0.20914 -1.301,0.3811 -1.42533,0.38213 -0.14776,0.001 -0.38835,-0.0808 -0.69475,-0.23695 -0.54213,-0.27623 -1.22184,-0.54156 -1.38734,-0.54156 -0.0629,0 -0.16961,0.0703 -0.23716,0.15616 -0.37346,0.47478 -0.1651,1.22881 0.74506,2.69624 0.53842,0.86808 0.80706,1.45896 1.07754,2.37013 0.24165,0.81405 0.38939,1.12941 0.59216,1.26401 0.15459,0.10261 1.17398,0.14671 3.79231,0.16404 l 1.74084,0.0115 z m -11.38784,-5.03961 c 0.77803,-0.33745 0.86557,-0.41462 1.15014,-1.01371 0.1364,-0.28719 0.4004,-0.73783 0.58665,-1.00144 0.47913,-0.6781 1.08755,-1.63909 1.21678,-1.92188 0.13223,-0.28937 0.14222,-0.57922 0.0275,-0.79836 -0.0467,-0.0892 -0.26092,-0.3323 -0.47611,-0.54033 -0.43331,-0.41888 -0.36163,-0.23291 -0.73339,-1.90288 -0.0882,-0.39619 -0.19818,-0.79417 -0.24441,-0.88441 -0.1071,-0.20906 -0.3263,-0.3189 -0.74234,-0.37199 -0.40671,-0.0519 -0.76383,-0.2074 -0.95592,-0.41626 -0.19495,-0.21195 -0.44623,-0.20651 -1.15467,0.025 -0.57682,0.1885 -0.85286,0.37756 -0.91547,0.62701 -0.0189,0.0752 -0.0744,0.44368 -0.12348,0.81882 -0.0774,0.59242 -0.12554,0.75603 -0.36602,1.2447 -0.3232,0.65675 -0.32317,0.65791 0.0435,1.62628 0.30816,0.81384 0.29963,1.05584 -0.0582,1.64866 -0.37587,0.6228 -0.50985,1.02118 -0.47167,1.40245 0.0544,0.5432 0.13558,0.61859 1.27056,1.1798 0.59938,0.29637 1.09976,0.50644 1.21259,0.50907 0.10565,0.002 0.4359,-0.10127 0.73391,-0.23052 z m 17.87863,-5.96301 c 0.70339,-0.94881 1.45518,-2.114 1.45518,-2.25534 0,-0.20195 -0.15401,-0.40003 -0.56262,-0.72358 -0.60584,-0.47974 -0.94972,-0.60071 -1.12098,-0.39436 -0.0426,0.0514 -0.11324,0.40472 -0.15691,0.78522 -0.0437,0.3805 -0.12039,0.77743 -0.17051,0.88207 -0.0501,0.10464 -0.22302,0.28481 -0.38421,0.40036 -0.96552,0.69214 -0.98963,0.73307 -0.65572,1.11337 0.26998,0.30749 0.9009,0.72891 1.11206,0.74279 0.0396,0.003 0.25731,-0.24513 0.48371,-0.55053 z m 2.76682,-4.32899 c 0.0776,-0.0705 0.21688,-0.27674 0.30951,-0.45833 0.40957,-0.80286 0.68074,-1.02935 1.72913,-1.44424 0.84833,-0.33573 2.22035,-1.03556 2.46084,-1.25521 0.14262,-0.13027 0.19179,-0.22669 0.19179,-0.37614 0,-0.27502 -0.40306,-1.66832 -0.52001,-1.79754 -0.12434,-0.13739 -1.06665,-0.50544 -1.66439,-0.65009 -0.26046,-0.063 -0.57111,-0.18318 -0.69034,-0.26701 -0.11922,-0.0838 -0.34669,-0.24609 -0.50548,-0.36059 -0.4372,-0.31521 -0.91935,-0.35862 -1.0602,-0.0954 -0.0873,0.16307 -0.22676,0.85466 -0.36992,1.83414 -0.0676,0.46222 -0.19967,1.16456 -0.29357,1.56075 -0.15274,0.64453 -0.34576,1.81347 -0.45108,2.73176 -0.0327,0.28486 -0.0195,0.35406 0.0955,0.50024 0.23798,0.30253 0.49239,0.32827 0.76819,0.0777 z m -7.07182,-5.02193 c 0.17298,-0.0926 1.33693,-2.49636 1.29318,-2.67068 -0.0381,-0.15176 -0.27832,-0.2976 -1.56648,-0.95099 -0.86892,-0.44073 -1.08934,-0.50689 -1.34117,-0.40258 -0.2033,0.0842 -0.50031,0.57962 -1.00098,1.66962 -0.47624,1.0368 -0.51347,0.9648 0.91916,1.77772 1.156,0.65595 1.39605,0.73759 1.69629,0.57691 z m 8.9117,13.69078 c -0.41206,-0.17044 -0.57685,-0.76256 -0.31817,-1.14331 0.40807,-0.60067 1.35956,-0.66631 1.65636,-0.11427 0.10703,0.19909 0.0579,0.66219 -0.0926,0.87364 -0.24162,0.33931 -0.8787,0.53569 -1.24557,0.38394 z m 3.75182,-1.74354 c -0.65008,-0.23536 -0.84404,-0.33267 -0.98053,-0.4919 -0.31431,-0.36669 -0.35284,-0.63248 -0.15498,-1.06891 0.14356,-0.31666 0.30521,-0.50366 0.59525,-0.6886 0.25613,-0.16331 1.13481,-0.54803 1.36935,-0.59954 0.20333,-0.0447 0.46868,0.0462 0.66196,0.22662 0.15188,0.14178 0.79006,1.1427 0.79006,1.23912 0,0.0838 -0.59034,1.078 -0.76779,1.29311 -0.19082,0.23131 -0.43045,0.39019 -0.58287,0.38645 -0.066,-0.002 -0.48473,-0.13498 -0.93045,-0.29635 z m 3.5422,-2.05258 c -0.33366,-0.17143 -0.54074,-0.46819 -0.54074,-0.7749 0,-0.48058 0.2465,-0.71429 0.75338,-0.71429 0.23591,0 0.30988,0.0308 0.47784,0.19872 0.35528,0.35528 0.41772,0.96175 0.12712,1.23475 -0.21282,0.19993 -0.49897,0.21943 -0.8176,0.0557 z"
     id="path591" /></svg>
